HIERARCHY
ROOT hip
{
  OFFSET 34.8348 63.9039 -38.5768
  CHANNELS 6 Xposition Yposition Zposition Zrotation Xrotation Yrotation
  JOINT abdomen
  {
    OFFSET 0 20.6881 -0.73152
    CHANNELS 3 Zrotation Xrotation Yrotation
    JOINT chest
    {
      OFFSET 0 11.7043 -0.48768
      CHANNELS 3 Zrotation Xrotation Yrotation
      JOINT neck
      {
        OFFSET 0 22.1894 -2.19456
        CHANNELS 3 Zrotation Xrotation Yrotation
        JOINT head
        {
          OFFSET -0.24384 7.07133 1.2192
          CHANNELS 3 Zrotation Xrotation Yrotation
          JOINT leftEye
          {
            OFFSET 4.14528 8.04674 8.04672
            CHANNELS 3 Zrotation Xrotation Yrotation
            End Site
            {
              OFFSET 1 0 0
            }
          }
          JOINT rightEye
          {
            OFFSET -3.6576 8.04674 8.04672
            CHANNELS 3 Zrotation Xrotation Yrotation
            End Site
            {
              OFFSET 1 0 0
            }
          }
        }
      }
      JOINT rCollar
      {
        OFFSET -2.68224 19.2634 -4.8768
        CHANNELS 3 Zrotation Xrotation Yrotation
        JOINT rShldr
        {
          OFFSET -8.77824 -1.95073 1.46304
          CHANNELS 3 Zrotation Xrotation Yrotation
          JOINT rForeArm
          {
            OFFSET -28.1742 -1.7115 0.48768
            CHANNELS 3 Zrotation Xrotation Yrotation
            JOINT rHand
            {
              OFFSET -22.5879 0.773209 7.07136
              CHANNELS 3 Zrotation Xrotation Yrotation
              JOINT rThumb1
              {
                OFFSET -1.2192 -0.487915 3.41376
                CHANNELS 3 Zrotation Xrotation Yrotation
                JOINT rThumb2
                {
                  OFFSET -3.37035 -0.52449 3.41376
                  CHANNELS 3 Zrotation Xrotation Yrotation
                  End Site
                  {
                    OFFSET -1.78271 -1.18214 1.43049
                  }
                }
              }
              JOINT rIndex1
              {
                OFFSET -7.75947 0.938293 5.60832
                CHANNELS 3 Zrotation Xrotation Yrotation
                JOINT rIndex2
                {
                  OFFSET -2.54057 -0.884171 1.56538
                  CHANNELS 3 Zrotation Xrotation Yrotation
                  End Site
                  {
                    OFFSET -1.62519 -0.234802 1.16502
                  }
                }
              }
              JOINT rMid1
              {
                OFFSET -8.24714 1.18213 3.41376
                CHANNELS 3 Zrotation Xrotation Yrotation
                JOINT rMid2
                {
                  OFFSET -3.10165 -0.590103 1.0647
                  CHANNELS 3 Zrotation Xrotation Yrotation
                  End Site
                  {
                    OFFSET -2.48547 -0.328903 0.83742
                  }
                }
              }
              JOINT rRing1
              {
                OFFSET -8.82822 0.546677 1.51678
                CHANNELS 3 Zrotation Xrotation Yrotation
                JOINT rRing2
                {
                  OFFSET -2.60934 -0.819778 -0.0198488
                  CHANNELS 3 Zrotation Xrotation Yrotation
                  End Site
                  {
                    OFFSET -2.33842 -0.294052 0.168128
                  }
                }
              }
              JOINT rPinky1
              {
                OFFSET -8.27202 -0.0477905 -0.4584
                CHANNELS 3 Zrotation Xrotation Yrotation
                JOINT rPinky2
                {
                  OFFSET -1.82734 -0.647385 -0.700984
                  CHANNELS 3 Zrotation Xrotation Yrotation
                  End Site
                  {
                    OFFSET -1.69225 -0.51767 -0.607171
                  }
                }
              }
            }
          }
        }
      }
      JOINT lCollar
      {
        OFFSET 2.68224 19.2634 -4.8768
        CHANNELS 3 Zrotation Xrotation Yrotation
        JOINT lShldr
        {
          OFFSET 8.77824 -1.95073 1.46304
          CHANNELS 3 Zrotation Xrotation Yrotation
          JOINT lForeArm
          {
            OFFSET 28.1742 -1.7115 0.48768
            CHANNELS 3 Zrotation Xrotation Yrotation
            JOINT lHand
            {
              OFFSET 22.5879 0.773209 7.07136
              CHANNELS 3 Zrotation Xrotation Yrotation
              JOINT lThumb1
              {
                OFFSET 1.2192 -0.487915 3.41376
                CHANNELS 3 Zrotation Xrotation Yrotation
                JOINT lThumb2
                {
                  OFFSET 3.37035 -0.52449 3.41376
                  CHANNELS 3 Zrotation Xrotation Yrotation
                  End Site
                  {
                    OFFSET 1.78271 -1.18214 1.43049
                  }
                }
              }
              JOINT lIndex1
              {
                OFFSET 7.75947 0.938293 5.60832
                CHANNELS 3 Zrotation Xrotation Yrotation
                JOINT lIndex2
                {
                  OFFSET 2.54057 -0.884171 1.56538
                  CHANNELS 3 Zrotation Xrotation Yrotation
                  End Site
                  {
                    OFFSET 1.62519 -0.234802 1.16502
                  }
                }
              }
              JOINT lMid1
              {
                OFFSET 8.24714 1.18213 3.41376
                CHANNELS 3 Zrotation Xrotation Yrotation
                JOINT lMid2
                {
                  OFFSET 3.10165 -0.590103 1.0647
                  CHANNELS 3 Zrotation Xrotation Yrotation
                  End Site
                  {
                    OFFSET 2.48547 -0.328903 0.83742
                  }
                }
              }
              JOINT lRing1
              {
                OFFSET 8.82822 0.546677 1.51678
                CHANNELS 3 Zrotation Xrotation Yrotation
                JOINT lRing2
                {
                  OFFSET 2.60934 -0.819778 -0.0198488
                  CHANNELS 3 Zrotation Xrotation Yrotation
                  End Site
                  {
                    OFFSET 2.33842 -0.294052 0.168128
                  }
                }
              }
              JOINT lPinky1
              {
                OFFSET 8.27202 -0.0477905 -0.4584
                CHANNELS 3 Zrotation Xrotation Yrotation
                JOINT lPinky2
                {
                  OFFSET 1.82734 -0.647385 -0.700984
                  CHANNELS 3 Zrotation Xrotation Yrotation
                  End Site
                  {
                    OFFSET 1.69225 -0.51767 -0.607171
                  }
                }
              }
            }
          }
        }
      }
    }
  }
  JOINT rButtock
  {
    OFFSET -8.77824 4.35084 1.2192
    CHANNELS 3 Zrotation Xrotation Yrotation
    JOINT rThigh
    {
      OFFSET 0 -1.70687 -2.19456
      CHANNELS 3 Zrotation Xrotation Yrotation
      JOINT rShin
      {
        OFFSET 0 -36.8199 0.73152
        CHANNELS 3 Zrotation Xrotation Yrotation
        JOINT rFoot
        {
          OFFSET 0.73152 -45.1104 -5.12064
          CHANNELS 3 Zrotation Xrotation Yrotation
          End Site
          {
            OFFSET -1.1221 -3.69964 12.103
          }
        }
      }
    }
  }
  JOINT lButtock
  {
    OFFSET 8.77824 4.35084 1.2192
    CHANNELS 3 Zrotation Xrotation Yrotation
    JOINT lThigh
    {
      OFFSET 0 -1.70687 -2.19456
      CHANNELS 3 Zrotation Xrotation Yrotation
      JOINT lShin
      {
        OFFSET 0 -36.8199 0.73152
        CHANNELS 3 Zrotation Xrotation Yrotation
        JOINT lFoot
        {
          OFFSET -0.73152 -45.1104 -5.12064
          CHANNELS 3 Zrotation Xrotation Yrotation
          End Site
          {
            OFFSET 1.1221 -3.69964 12.103
          }
        }
      }
    }
  }
}
MOTION
Frames:	4
Frame Time:	0.00833333
41.9104 66.5484 -32.0242 2.2528 0.0105378 -0.0431292 -2.96285 0.00183591 -0.0799148 -0.816446 0.0169083 -0.141251 -8.212e-014 0 -5.96354e-016 -2.47496e-013 -6.36111e-015 -2.38697e-015 -0 0 0 -0 0 0 -4.15e-014 -1.8306e-016 -2.48481e-016 -8.66523e-013 -3.89494e-015 -1.05356e-014 -1.49354e-011 4.35418e-012 -2.22639e-014 -1.71186e-010 -5.19484e-012 -1.90197e-012 -4.03758e-010 -1.82449e-012 -4.13154e-012 -6.97272e-010 -3.15193e-012 -7.11649e-012 -4.03756e-010 -1.82246e-012 -4.14744e-012 7.73091 5.47488 0.417314 -4.03758e-010 -1.82464e-012 -4.12518e-012 2.90554 0.965183 0.102902 -4.0375e-010 -1.82415e-012 -4.12677e-012 10.2786 0.731801 0.0259123 -4.03764e-010 -1.82365e-012 -4.11564e-012 2.22167 -0.733487 -0.20892 -4.15946e-014 -1.89855e-016 -5.46658e-016 -8.69784e-013 -3.99433e-015 -1.23246e-014 -1.49763e-011 -4.60644e-012 -6.36111e-015 -1.71146e-010 3.76657e-012 -1.89879e-012 -4.03755e-010 -1.82174e-012 -4.09973e-012 -6.97265e-010 -3.14557e-012 -7.07673e-012 -4.03762e-010 -1.81888e-012 -4.09019e-012 -7.73091 5.47488 -0.417314 -4.03755e-010 -1.82107e-012 -4.10292e-012 -2.90554 0.965183 -0.102902 -4.03766e-010 -1.82087e-012 -4.10848e-012 -10.2786 0.731801 -0.0259123 -4.03749e-010 -1.82007e-012 -4.122e-012 -2.22167 -0.733487 0.20892 -2.03217e-016 0 -3.88251e-019 -1.77288 -1.93398 0.012226 -0.00866388 -2.07864 -0.0712045 -0.476973 3.99977 0.135159 2.03217e-016 0 3.88251e-019 -2.72873 -9.04326 0.303252 -0.00826585 10.7976 -0.214894 0.538589 -1.76709 -0.0242179 
34.6972 64.7201 -38.3689 1.17922 -3.1505 25.2527 -1.88597 5.13227 -0.167588 -1.22591 -1.81069 -0.215562 1.00231 -0.108619 0.599327 -0.730918 -0.975306 0.809157 -0 0 0 -0 0 0 -4.68053e-014 6.6982e-013 8.54269e-015 13.8206 7.3021 16.0731 -9.54987 -6.40939 11.9972 0.035115 4.15872 0.578921 2.57622e-010 -7.74315e-011 3.87998e-010 4.50935e-010 -1.3798e-010 6.61258e-010 2.57626e-010 -7.74311e-011 3.87985e-010 7.73091 5.47488 0.417314 2.57622e-010 -7.74322e-011 3.88005e-010 2.90554 0.965183 0.102902 2.5763e-010 -7.7432e-011 3.88001e-010 10.2786 0.731801 0.0259123 2.57616e-010 -7.74314e-011 3.88012e-010 2.22167 -0.733487 -0.20892 -4.69092e-014 6.69815e-013 8.30586e-015 -14.7534 7.76908 -14.0562 12.4421 -9.41845 -13.6364 -0.00456365 1.49863 -0.210358 -7.73622e-010 7.12705e-012 -4.33808e-010 -1.33855e-009 1.05999e-011 -7.46599e-010 -7.73628e-010 7.1289e-012 -4.33798e-010 -7.73091 5.47488 -0.417314 -7.73623e-010 7.12695e-012 -4.33813e-010 -2.90554 0.965183 -0.102902 -7.73632e-010 7.12685e-012 -4.33816e-010 -10.2786 0.731801 -0.0259123 -7.73617e-010 7.12714e-012 -4.33826e-010 -2.22167 -0.733487 0.20892 -2.03217e-016 0 -3.88251e-019 -3.38663 -10.9638 -4.72966 0.159191 18.4467 0.230151 -0.925616 -4.76589 -3.365 2.03217e-016 0 3.88251e-019 2.0422 -15.9682 5.59229 -0.0658136 27.643 -0.480205 1.27055 -8.25474 4.7333 
34.6919 64.725 -38.3386 2.64491 -4.42761 52.1282 -0.728035 10.5557 -0.263435 -1.66531 -3.74193 -0.294508 2.06468 -0.222849 1.23393 -1.47375 -2.00285 1.66722 -0 0 0 -0 0 0 -5.2932e-014 1.40064e-012 1.81174e-014 24.1322 13.0856 33.7815 -16.7565 -12.2365 25.1288 -0.0200821 8.5552 1.20137 9.55883e-010 -1.65628e-010 7.94625e-010 1.6631e-009 -2.94857e-010 1.35411e-009 9.55889e-010 -1.6563e-010 7.94616e-010 7.73091 5.47488 0.417314 9.55883e-010 -1.6563e-010 7.94633e-010 2.90554 0.965183 0.102902 9.55891e-010 -1.6563e-010 7.94627e-010 10.2786 0.731801 0.0259123 9.55877e-010 -1.65629e-010 7.94637e-010 2.22167 -0.733487 -0.20892 -5.30485e-014 1.40063e-012 1.79496e-014 -26.2695 14.4036 -29.67 20.7142 -17.5645 -29.1439 0.00259574 3.08429 -0.433421 -1.17181e-009 1.56828e-011 -8.92705e-010 -2.02892e-009 2.35359e-011 -1.53635e-009 -1.17181e-009 1.56836e-011 -8.92694e-010 -7.73091 5.47488 -0.417314 -1.17181e-009 1.56819e-011 -8.92711e-010 -2.90554 0.965183 -0.102902 -1.17182e-009 1.56815e-011 -8.92711e-010 -10.2786 0.731801 -0.0259123 -1.1718e-009 1.56812e-011 -8.92718e-010 -2.22167 -0.733487 0.20892 -2.03217e-016 0 -3.88251e-019 -6.80696 -20.2865 -10.2045 0.0415002 40.143 0.685949 -2.591 -13.9416 -7.25559 2.03217e-016 0 3.88251e-019 8.58452 -23.004 11.6848 0.11992 45.4482 -0.929282 3.24647 -14.9491 9.99945 
34.6921 64.7259 -38.2916 4.72951 -2.56848 75.9499 0.31667 15.3929 -0.353602 -2.05914 -5.46581 -0.365523 3.01375 -0.325715 1.79801 -2.11005 -2.92358 2.43029 -0 0 0 -0 0 0 -5.74159e-014 2.00983e-012 2.6125e-014 30.4623 15.0745 50.1229 -20.9364 -15.8379 37.409 -0.151918 12.471 1.77406 1.58038e-009 -2.28645e-010 1.17226e-009 2.74735e-009 -4.07637e-010 1.99801e-009 1.58039e-009 -2.28648e-010 1.17225e-009 7.73091 5.47488 0.417314 1.58038e-009 -2.28647e-010 1.17227e-009 2.90554 0.965183 0.102902 1.58039e-009 -2.28648e-010 1.17226e-009 10.2786 0.731801 0.0259123 1.58038e-009 -2.28647e-010 1.17227e-009 2.22167 -0.733487 -0.20892 -5.75383e-014 2.00982e-012 2.60109e-014 -33.542 17.6706 -44.3612 24.3604 -21.7269 -44.1812 0.0194078 4.49564 -0.632806 -1.51336e-009 2.50246e-011 -1.29323e-009 -2.62112e-009 3.80909e-011 -2.22564e-009 -1.51336e-009 2.50245e-011 -1.29321e-009 -7.73091 5.47488 -0.417314 -1.51336e-009 2.5023e-011 -1.29323e-009 -2.90554 0.965183 -0.102902 -1.51336e-009 2.50223e-011 -1.29323e-009 -10.2786 0.731801 -0.0259123 -1.51335e-009 2.50216e-011 -1.29323e-009 -2.22167 -0.733487 0.20892 -2.03217e-016 0 -3.88251e-019 -11.5634 -28.1948 -15.8789 -0.64491 59.4884 1.57051 -5.21265 -21.9411 -11.1463 2.03217e-016 0 3.88251e-019 15.8493 -28.8331 17.7946 0.792945 61.3243 -1.77993 6.11954 -20.6415 15.0904 
